<svg xmlns="http://www.w3.org/2000/svg" width="735.591" height="440.198" viewBox="0 0 735.591 440.198">
  <g>
    <path fill="#f2f5fa" d="M78.27,132.006H9.66a10.937,10.937,0,0,0-1.123.048A9.645,9.645,0,0,0,0,141.536a9.516,9.516,0,0,0,7.527,9.131l.1.022a9.735,9.735,0,0,0,1.9.187H78.27a42.629,42.629,0,0,0,42.58-42.58,40.591,40.591,0,0,0-12.166-29.157c-3.556-3.777-13.515-12.44-30.291-12.852H42.929c-13.4-.892-23.869-11.28-23.869-23.71,0-14.177,12.259-23.7,23.71-23.7H211.808c13.392.887,23.862,11.273,23.862,23.705,0,14.179-12.257,23.7-23.7,23.7H143.227a9.543,9.543,0,0,0-9.532,9.532c0,.089,0,.178.007.348.06,2,.216,12.385.37,65.369a9.45,9.45,0,0,0,9.532,9.343,9.244,9.244,0,0,0,9.344-9.343V85.16h59.018a42.628,42.628,0,0,0,42.58-42.579,41.794,41.794,0,0,0-12.169-29.725C238.827,9.075,228.888.412,212.088,0H107.945c-.032,0-.064.005-.1.005H42.77A42.624,42.624,0,0,0,.189,42.576,41.768,41.768,0,0,0,12.354,72.3c3.553,3.785,13.5,12.451,30.3,12.852l35.46,0c13.613.9,23.86,10.827,23.86,23.14C101.97,122.479,89.715,132.006,78.27,132.006Z"/>
    <path fill="#f2f5fa" d="M557.948,66.311a9.438,9.438,0,1,0,0,18.875h88.088a9.45,9.45,0,0,0,9.344-9.532,9.245,9.245,0,0,0-9.344-9.343Z"/>
    <path fill="#f2f5fa" d="M111.712,285.328a9.438,9.438,0,1,0-18.875,0v46.833a9.449,9.449,0,0,0,9.532,9.343,9.244,9.244,0,0,0,9.343-9.343Z"/>
    <path fill="#f2f5fa" d="M120.479,233.2a41.825,41.825,0,0,0-12.165-29.726C104.76,199.7,94.8,191.037,78.022,190.625H9.529a9.713,9.713,0,0,0-1.9.187l-.1.022A9.639,9.639,0,0,0,0,200.164a9.383,9.383,0,0,0,8.572,9.3,10.7,10.7,0,0,0,1.088.045H77.741c13.391.883,23.859,11.267,23.859,23.7,0,14.183-12.255,23.711-23.7,23.711H9.529A9.539,9.539,0,0,0,0,266.445l.01,65.72A9.446,9.446,0,0,0,9.54,341.5a9.24,9.24,0,0,0,9.34-9.339V275.784H77.9A42.628,42.628,0,0,0,120.479,233.2Z"/>
    <path fill="#f2f5fa" d="M276.859,150.877a9.5,9.5,0,0,0,9.491-9.51l-.066-56.276h82.969v56.286a9.5,9.5,0,0,0,19,0V60.5a60.5,60.5,0,1,0-121,.011l.1,80.878A9.513,9.513,0,0,0,276.859,150.877ZM327.754,19a41.546,41.546,0,0,1,41.5,41.5v5.717H286.261l-.006-5.717A41.546,41.546,0,0,1,327.754,19Z"/>
    <path fill="#f2f5fa" d="M245.329,341.5a9.511,9.511,0,0,0,9.5-9.5V251.125a60.5,60.5,0,1,0-121,.011l.095,80.879a9.5,9.5,0,0,0,19-.021l-.066-56.277h82.969V332A9.511,9.511,0,0,0,245.329,341.5Zm-92.491-84.662-.007-5.717a41.5,41.5,0,1,1,83,0v5.717Z"/>
    <path fill="#f2f5fa" d="M276.86,341.5a9.511,9.511,0,0,0,9.49-9.51l-.1-80.869a41.5,41.5,0,1,1,83,0V332a9.5,9.5,0,0,0,19,0V251.125a60.5,60.5,0,1,0-121,.011l.1,80.879A9.514,9.514,0,0,0,276.86,341.5Z"/>
    <path fill="#f2f5fa" d="M473.811,150.839c.755.022,1.523.032,2.29.032h30.535c.042,0,.083.006.126.006H636.576V256.892H553.6V200.33a9.438,9.438,0,1,0-18.875,0v132a9.449,9.449,0,0,0,9.531,9.343,9.245,9.245,0,0,0,9.344-9.343V275.767h82.981V332.33a9.449,9.449,0,0,0,9.531,9.343,9.244,9.244,0,0,0,9.344-9.343V141.535a9.637,9.637,0,0,0-.753-3.744,9.167,9.167,0,0,0-6.349-5.5c-.135-.034-.268-.074-.405-.1l-.029,0a9.133,9.133,0,0,0-1.808-.183l-.035,0-.036,0H478.881l-.129.007c-.825.042-1.692.063-2.651.063-.64,0-1.281-.009-1.96-.037a56.638,56.638,0,0,1-.013-113.207c.651-.027,1.312-.036,1.973-.036.917,0,1.877.024,2.934.075l.118,0h27.84c.036,0,.071.005.107.005H646.036a9.45,9.45,0,0,0,9.344-9.532A9.245,9.245,0,0,0,646.036,0H475.191l-.91.01c-.171,0-.342,0-.521.016a75.439,75.439,0,0,0-51.755,127.984A75.029,75.029,0,0,0,473.811,150.839Z"/>
    <path fill="#f2f5fa" d="M474.48,209.623c.652-.027,1.313-.036,1.973-.036.918,0,1.877.024,2.933.075l.119,0h32.818a9.452,9.452,0,0,0,9.35-9.53,9.245,9.245,0,0,0-9.35-9.34h-36.78l-.91.01c-.169,0-.34,0-.522.016a75.442,75.442,0,0,0,.055,150.812c.756.021,1.522.032,2.287.032h35.87a9.452,9.452,0,0,0,9.35-9.53,9.246,9.246,0,0,0-9.35-9.34H479.235l-.129.007c-.822.042-1.69.063-2.653.063-.639,0-1.278-.008-1.96-.037a56.638,56.638,0,0,1-.013-113.207Z"/>
    <path fill="#f2f5fa" d="M111.712,331.289a20.976,20.976,0,0,0,2,7.228,35.682,35.682,0,0,0,4.555,7.375,73.941,73.941,0,0,0,14.39,13.41,150.5,150.5,0,0,0,17.808,11.173c6.253,3.4,12.759,6.5,19.377,9.41,26.6,11.477,54.965,19.757,83.676,26.2a724.151,724.151,0,0,0,176.059,16.657,591.456,591.456,0,0,0,88.154-9.1c29.045-5.382,57.707-13.159,85.012-24.43,27.287-11.221,53.249-25.964,76-44.93a227.289,227.289,0,0,0,55.95-68.712l.9.439a219.3,219.3,0,0,1-22.707,38.961,234.877,234.877,0,0,1-30.207,33.789c-5.564,5.145-11.351,10.062-17.362,14.695s-12.239,8.985-18.613,13.11a315.677,315.677,0,0,1-39.93,21.875,391.9,391.9,0,0,1-42.436,16.514c-7.22,2.343-14.493,4.527-21.824,6.495s-14.709,3.742-22.119,5.372a576.626,576.626,0,0,1-90.081,12.188q-22.7,1.347-45.457,1.168c-15.162-.071-30.318-.72-45.446-1.815q-22.687-1.677-45.269-4.737-22.552-3.189-44.906-7.867T204.919,414.43a380.977,380.977,0,0,1-43.285-15.824c-7.078-3.141-14.1-6.487-20.954-10.337a170.5,170.5,0,0,1-20.057-12.922,104.538,104.538,0,0,1-9.4-7.973,78.948,78.948,0,0,1-8.578-9.557,52.824,52.824,0,0,1-6.839-11.906,39.509,39.509,0,0,1-2.968-14.634Z"/>
  </g>
</svg>
